PathFileType	4	(X/Y/Z)	./resultDataOpenSim/trcMotMarkerGrf/sub10/qtm-12-06.trc
DataRate	CameraRate	NumFrames	NumMarkers	Units	OrigDataRate	OrigDataStartFrame	OrigNumFrames
250.000000	250.000000	12	24	m	250.000000	1	483
Frame#	Time	L.Toe.Tip			R.Toe.Tip			L.Ankle.Lat			R.Ankle.Lat			L.Ankle.Med			R.Ankle.Med			L.Heel			R.Heel			L.Knee.Lat			R.Knee.Lat			L.Knee.Med			R.Knee.Med			L.Thigh.Upper			R.Thigh.Upper			L.ASIS			R.ASIS			V.Sacral			L.Acromium			R.Acromium			C7			L.Elbow			R.Elbow			L.Wrist.Lat			R.Wrist.Lat
		X1	Y1	Z1	X2	Y2	Z2	X3	Y3	Z3	X4	Y4	Z4	X5	Y5	Z5	X6	Y6	Z6	X7	Y7	Z7	X8	Y8	Z8	X9	Y9	Z9	X10	Y10	Z10	X11	Y11	Z11	X12	Y12	Z12	X13	Y13	Z13	X14	Y14	Z14	X15	Y15	Z15	X16	Y16	Z16	X17	Y17	Z17	X18	Y18	Z18	X19	Y19	Z19	X20	Y20	Z20	X21	Y21	Z21	X22	Y22	Z22	X23	Y23	Z23	X24	Y24	Z24

1	0	-1.5278454	0.038596114	-0.094337326	-0.96359309	0.12156745	0.049044327	-1.6570734	0.068946989	-0.13755812	-1.0970226	0.073750864	0.056351237	-1.6459523	0.094444857	-0.053103455	-1.0813711	0.11589439	-0.019881351	NaN	NaN	NaN	-1.1215944	0.033038095	-0.0059074296	-1.5220294	0.43034774	-0.1734572	-1.258523	0.44268713	0.098854736	-1.5277456	0.41307713	-0.052856014	-1.2340525	0.45353926	-0.029521749	-1.423938	0.81365968	-0.23892228	-1.4002077	0.83577336	0.14215289	-1.3526988	0.92044471	-0.17770468	-1.332992	0.93054944	0.067074058	-1.5422274	0.93594985	-0.041061882	-1.3544096	1.3821293	-0.20935144	-1.3983769	1.3862112	0.11457674	-1.4576647	1.428071	-0.062260627	-1.3807029	1.0325165	-0.26199332	-1.5527834	1.0716737	0.14745552	-1.1726196	0.8966979	-0.24109327	-1.4690137	0.84959985	0.21321914
2	0.004	-1.5277434	0.038531115	-0.094432297	-0.95204422	0.12513123	0.047362813	-1.6579924	0.070318837	-0.14037248	-1.0848392	0.074761107	0.057439839	-1.6453978	0.094942536	-0.052965139	-1.0706004	0.11700297	-0.019022816	NaN	NaN	NaN	-1.1088845	0.03396687	-0.0042476498	-1.5191723	0.42982697	-0.17359258	-1.2514784	0.441655	0.09967513	-1.5246323	0.41260923	-0.05272941	-1.2297258	0.45138651	-0.029076468	-1.4196034	0.81277792	-0.23922195	-1.3937863	0.83394816	0.14211846	-1.3488218	0.91919454	-0.17852916	-1.3268291	0.9290565	0.066670533	-1.5369615	0.93433891	-0.040198393	-1.3496414	1.380826	-0.20930516	-1.3930749	1.384752	0.11482192	-1.452763	1.4267723	-0.061864006	-1.3747139	1.031115	-0.26134965	-1.5478491	1.0703331	0.14749855	-1.165357	0.89694616	-0.23980636	-1.4663077	0.84806399	0.21335543
3	0.008	-1.5276757	0.038478466	-0.094476897	-0.94075807	0.12843622	0.045828771	-1.6588444	0.071665181	-0.14297456	-1.0730462	0.075644312	0.058467938	-1.6448876	0.095459143	-0.052815744	-1.0599884	0.11807741	-0.018128171	NaN	NaN	NaN	-1.0967294	0.034700937	-0.0026246658	-1.5162695	0.42929977	-0.173726	-1.2443711	0.44072163	0.10051732	-1.5215651	0.41212273	-0.052590629	-1.225299	0.44931547	-0.028534964	-1.4152675	0.81189185	-0.23949679	-1.386984	0.83216946	0.14215329	-1.3445946	0.91800226	-0.17919561	-1.3206837	0.92755748	0.066260426	-1.5316288	0.93274891	-0.039267976	-1.3448321	1.3795317	-0.20924336	-1.3877025	1.3832929	0.11506149	-1.4478686	1.4254853	-0.061499061	-1.3687602	1.0297481	-0.2607423	-1.5430602	1.0690282	0.14767486	-1.1582025	0.89717048	-0.23856722	-1.4635857	0.8465376	0.21348533
4	0.012	-1.5276386	0.03844292	-0.094474071	-0.92998119	0.13126171	0.044471899	-1.659405	0.07281603	-0.14476658	-1.0618812	0.076318285	0.059431336	-1.6444744	0.095996372	-0.052629312	-1.0496995	0.11904758	-0.017186643	NaN	NaN	NaN	-1.0854123	0.035200227	-0.0010582565	-1.5132908	0.42876921	-0.17386036	-1.2371112	0.43995672	0.10137717	-1.5185141	0.41161994	-0.052452261	-1.2206853	0.44738176	-0.027852152	-1.410937	0.81100741	-0.23971991	-1.379564	0.83049245	0.14232384	-1.339969	0.91687035	-0.17969456	-1.3145774	0.92603668	0.065830803	-1.5261953	0.93120629	-0.038228231	-1.3399595	1.3782546	-0.20916029	-1.3822405	1.3818443	0.11530395	-1.4429649	1.4242146	-0.061145157	-1.3628384	1.0284143	-0.26014229	-1.5384233	1.0678436	0.14797707	-1.1511714	0.89735982	-0.23737255	-1.4608762	0.84502671	0.21359777
5	0.016	-1.5276058	0.038420349	-0.094456149	-0.91987929	0.13345569	0.043281921	-1.659575	0.073697525	-0.14551909	-1.0514291	0.076753804	0.060373355	-1.6441436	0.096545906	-0.05239395	-1.0399145	0.11982336	-0.016212304	NaN	NaN	NaN	-1.0749863	0.035526639	0.00051526261	-1.5102427	0.42825193	-0.17399292	-1.2296646	0.43939673	0.10222513	-1.5153559	0.41112106	-0.05235411	-1.215828	0.44562154	-0.027058363	-1.406626	0.8101376	-0.23989411	-1.3715187	0.82894991	0.14265733	-1.3351209	0.91576662	-0.18011446	-1.3085192	0.92448749	0.06537778	-1.5206828	0.92972784	-0.037079336	-1.3350464	1.3770068	-0.20905373	-1.3767114	1.3804193	0.1155573	-1.4380386	1.4229555	-0.060771273	-1.356929	1.0270879	-0.25948484	-1.5338157	1.06683	0.14828998	-1.144241	0.89752345	-0.23620835	-1.458276	0.84352415	0.21366622
6	0.02	-1.5275613	0.038403949	-0.094442781	-0.91041884	0.13495978	0.04232413	-1.6594778	0.074421764	-0.14561996	-1.0416687	0.076963779	0.061350514	-1.6437638	0.097109964	-0.052137653	-1.0307477	0.12033486	-0.01521516	NaN	NaN	NaN	-1.0654107	0.035739503	0.0022618463	-1.5071444	0.42775835	-0.17411077	-1.2220405	0.43906278	0.10302155	-1.5119672	0.41062976	-0.052327913	-1.2106696	0.44407152	-0.026236813	-1.4023353	0.80928614	-0.24005791	-1.363223	0.82748942	0.14307298	-1.3302006	0.91466716	-0.18052393	-1.30247	0.92291727	0.064913469	-1.5151575	0.9282941	-0.035888947	-1.3301245	1.3757971	-0.20891954	-1.3711465	1.3790198	0.1158176	-1.4330869	1.4216997	-0.060385716	-1.3510115	1.0257451	-0.2587247	-1.5291251	1.0659509	0.14853586	-1.1373997	0.89767376	-0.23507151	-1.4558544	0.84201751	0.2136702
7	0.024	-1.5275076	0.038390275	-0.094437576	-0.90145239	0.13579322	0.041681501	-1.6591887	0.075037909	-0.14534348	-1.0325381	0.076991521	0.062412632	-1.6432207	0.097705138	-0.051905713	-1.0222031	0.12054089	-0.014190362	NaN	NaN	NaN	-1.0566315	0.03586033	0.0043262299	-1.5040109	0.42727602	-0.17420411	-1.214203	0.43897438	0.10374059	-1.5083707	0.41012328	-0.052353301	-1.2051261	0.44278176	-0.025478165	-1.3980511	0.80844761	-0.24022824	-1.3552674	0.82601488	0.14342424	-1.3252639	0.91356816	-0.180942	-1.2963925	0.9213372	0.064454572	-1.5096959	0.92686469	-0.034760819	-1.3251927	1.3746226	-0.20875669	-1.3655898	1.3776424	0.11608712	-1.4281101	1.4204484	-0.060009627	-1.3450817	1.024385	-0.25785992	-1.5243361	1.0651385	0.14872528	-1.1306484	0.89781095	-0.23395163	-1.453475	0.84053267	0.21364043
8	0.028	-1.5274545	0.038378854	-0.094440037	-0.89292857	0.13599855	0.0413348	-1.6585784	0.075381334	-0.14442139	-1.0239945	0.07688024	0.063588141	-1.6425616	0.098344473	-0.051722398	-1.0142273	0.12041989	-0.013130215	NaN	NaN	NaN	-1.0485946	0.035864194	0.0066464887	-1.5008569	0.42678709	-0.17427565	-1.2060862	0.43913164	0.10437849	-1.5047057	0.40959324	-0.052367538	-1.1990946	0.44181299	-0.024844431	-1.3937535	0.80762297	-0.24036997	-1.3479121	0.82450462	0.14364797	-1.3203332	0.91247225	-0.18136705	-1.2903059	0.91975313	0.064009646	-1.5043283	0.92541902	-0.033741224	-1.3202232	1.3734724	-0.20856618	-1.3600636	1.376296	0.11637968	-1.4231062	1.4192122	-0.059641046	-1.3391629	1.0230357	-0.25694081	-1.5194797	1.0643485	0.14889808	-1.1239857	0.89793761	-0.23283441	-1.4508386	0.83913178	0.2136448
9	0.032	-1.5274055	0.038369249	-0.094448778	-0.88492466	0.13561521	0.041188487	-1.6574781	0.075256752	-0.14244935	-1.0160663	0.07662995	0.06486099	-1.6418966	0.099026013	-0.05158858	-1.006775	0.1199771	-0.01203189	NaN	NaN	NaN	-1.041243	0.035690446	0.008962214	-1.4976887	0.42628869	-0.17432948	-1.1977044	0.43948761	0.10492808	-1.5010915	0.4090589	-0.052313262	-1.1925097	0.44121825	-0.024360716	-1.3894295	0.8068269	-0.24044518	-1.3409895	0.82302467	0.14379796	-1.3154358	0.91137927	-0.18179338	-1.28427	0.91816617	0.063579292	-1.4990323	0.92396754	-0.032802592	-1.3151995	1.3723467	-0.2083473	-1.3545553	1.3749993	0.11670518	-1.4180766	1.4179989	-0.059274647	-1.3332938	1.021734	-0.2560398	-1.5145798	1.0635677	0.14907802	-1.1174045	0.89806629	-0.23171244	-1.4478172	0.83784104	0.21371082
10	0.036	-1.5273543	0.038360911	-0.094460699	-0.87749685	0.13470433	0.041190214	-1.6560104	0.074810993	-0.13971752	-1.0088224	0.076204617	0.066180136	-1.6412589	0.099746638	-0.051502833	-0.99981955	0.11924866	-0.010900091	NaN	NaN	NaN	-1.0345166	0.035287208	0.011076424	-1.4944823	0.42578486	-0.17435795	-1.1891845	0.43995476	0.10536572	-1.4975663	0.40852687	-0.052169582	-1.1854078	0.44100792	-0.02402913	-1.3850798	0.80607621	-0.24046005	-1.3342665	0.82164898	0.14395037	-1.3105754	0.91029285	-0.18220579	-1.2783247	0.91658271	0.063170584	-1.4937724	0.92253399	-0.031913103	-1.3101337	1.3712671	-0.20810067	-1.3490509	1.3737597	0.11706528	-1.4130229	1.416812	-0.058906685	-1.3274922	1.0204943	-0.25517891	-1.5096484	1.0628043	0.14927362	-1.1109026	0.89820098	-0.23058011	-1.4445814	0.83662391	0.21380142
11	0.04	-1.527294	0.03835445	-0.094473409	-0.87061267	0.13335975	0.041362898	-1.654611	0.074553563	-0.13727541	-1.0022605	0.07559306	0.067510189	-1.6406494	0.10051422	-0.051467609	-0.99334526	0.11828143	-0.0097546672	NaN	NaN	NaN	-1.0283563	0.034649364	0.012995196	-1.4911856	0.42528189	-0.17434517	-1.1806885	0.4404418	0.10567555	-1.4940741	0.4079849	-0.051961945	-1.17791	0.44113097	-0.023835985	-1.3807123	0.80537194	-0.24043255	-1.3276247	0.82042585	0.1441451	-1.3057012	0.9092273	-0.18257829	-1.2724418	0.91502349	0.062806439	-1.4885242	0.92114072	-0.031077921	-1.3050483	1.3702566	-0.20782854	-1.3435429	1.3725685	0.11745463	-1.4079387	1.4156581	-0.058516715	-1.3217471	1.01931	-0.25432687	-1.5046931	1.0620767	0.14948993	-1.1044901	0.89833353	-0.22943511	-1.4413563	0.83543738	0.21387714
12	0.044	-1.527224	0.038350852	-0.09448829	-0.86421596	0.13168405	0.041736555	-1.6536031	0.074867676	-0.13590186	-0.99628358	0.07482967	0.06884544	-1.6400877	0.10133802	-0.051478337	-0.98733485	0.11711448	-0.0086298456	NaN	NaN	NaN	-1.0227093	0.033813346	0.014808029	-1.4877558	0.4247956	-0.17428173	-1.1723204	0.44088685	0.10587052	-1.4904915	0.40743459	-0.051747928	-1.1701358	0.44149949	-0.023740535	-1.3763213	0.80469985	-0.2403424	-1.3210316	0.81938974	0.1443906	-1.30075	0.90819305	-0.18289345	-1.2665413	0.91351979	0.062512715	-1.4832735	0.91980365	-0.030330581	-1.2999541	1.3693176	-0.20753191	-1.3380261	1.371415	0.11786455	-1.4028193	1.4145458	-0.058100706	-1.3160464	1.0181778	-0.25347079	-1.4997138	1.0613879	0.14972307	-1.0981786	0.89846086	-0.2282872	-1.4382179	0.83427352	0.21394123
